<svg version="1.1" xmlns="http://www.w3.org/2000/svg" width="512" height="512">
<path d="M0 0 C168.96 0 337.92 0 512 0 C512 168.96 512 337.92 512 512 C343.04 512 174.08 512 0 512 C0 343.04 0 174.08 0 0 Z " fill="#E6E7E7" transform="translate(0,0)"/>
<path d="M0 0 C1.70333785 0.7544248 3.37889275 1.57357797 5.02734375 2.44140625 C5.97633545 2.93809814 6.92532715 3.43479004 7.90307617 3.9465332 C8.90443604 4.47980225 9.9057959 5.01307129 10.9375 5.5625 C11.97946533 6.11188232 13.02143066 6.66126465 14.0949707 7.22729492 C20.42377862 10.58044589 26.6630176 14.04197998 32.84375 17.66015625 C36.5038618 19.75928088 40.23433839 21.72100154 43.96875 23.68359375 C45.24650641 24.3576551 46.52425699 25.03172749 47.80200195 25.70581055 C49.73484066 26.72490618 51.66915115 27.74049238 53.60922241 28.74575806 C55.43532602 29.69207764 57.25509352 30.64972571 59.07421875 31.609375 C60.14244873 32.16592773 61.21067871 32.72248047 62.3112793 33.29589844 C65.00342237 35.00216909 66.52434897 36.18171246 68 39 C67.90551758 41.09887695 67.90551758 41.09887695 67 43 C65.49487305 44.28588867 65.49487305 44.28588867 63.51171875 45.41796875 C62.75616699 45.85931152 62.00061523 46.3006543 61.22216797 46.75537109 C60.38572754 47.22797363 59.54928711 47.70057617 58.6875 48.1875 C56.87028689 49.24470807 55.05393103 50.30339057 53.23828125 51.36328125 C52.24521973 51.93900879 51.2521582 52.51473633 50.22900391 53.10791016 C44.85086761 56.25932074 39.53348525 59.51010777 34.21157837 62.75527954 C32.4160763 63.8499567 30.61975458 64.94327193 28.82299805 66.03588867 C28.25305618 66.38247528 27.68311432 66.72906189 27.09590149 67.08615112 C25.42604685 68.10041763 23.75478275 69.11236247 22.08349609 70.12426758 C20.16290074 71.29259173 18.24804559 72.4704723 16.34228516 73.6628418 C10.32211298 77.39253683 4.14619549 80.31409926 -2.375 83.0625 C-3.38651123 83.4965918 -4.39802246 83.93068359 -5.44018555 84.37792969 C-9.54834903 86.13616148 -13.66201122 87.87714848 -17.80859375 89.54296875 C-26.31627568 92.96153015 -35.08054459 96.74389337 -41 104 C-42.32566218 107.69474879 -42.20342327 111.4858433 -42.25 115.375 C-42.27578125 116.66148437 -42.3015625 117.94796875 -42.328125 119.2734375 C-41.84074955 124.80863015 -40.0420026 128.25694842 -36.05078125 132.0390625 C-31.28833072 135.8724673 -25.7898718 138.04000708 -20.1875 140.375 C-17.92439494 141.34485557 -15.66137442 142.31490844 -13.3984375 143.28515625 C-11.74666504 143.98535889 -11.74666504 143.98535889 -10.06152344 144.69970703 C-6.12965656 146.36965304 -2.21658568 148.07875617 1.6875 149.8125 C2.38343262 150.12034424 3.07936523 150.42818848 3.79638672 150.74536133 C9.00868832 153.06824733 14.17328914 155.48634136 19.33403015 157.92137146 C32.42024748 164.09391792 45.56863616 170.06534899 58.875 175.75 C59.612948 176.06557861 60.350896 176.38115723 61.11120605 176.70629883 C68.47321497 179.8502835 75.84885355 182.95393872 83.26953125 185.95703125 C84.36475098 186.40272461 85.4599707 186.84841797 86.58837891 187.30761719 C88.56927919 188.10971483 90.5543015 188.90175405 92.54443359 189.68066406 C100.41220283 192.86134399 107.0665667 196.82186034 111.875 204 C112.42929687 204.804375 112.98359375 205.60875 113.5546875 206.4375 C116.70848381 212.02909562 117.30070348 217.19791194 117.29394531 223.5246582 C117.30054672 224.35963837 117.30714813 225.19461853 117.31394958 226.05490112 C117.33119325 228.80364929 117.33180873 231.55198491 117.328125 234.30078125 C117.32773979 235.24387838 117.32735458 236.18697552 117.3269577 237.15865135 C117.32214532 242.14877697 117.30264869 247.13862625 117.27294922 252.12866211 C117.24583819 257.26696419 117.2748244 262.40337558 117.31608963 267.5415163 C117.33692662 271.50805815 117.31366881 275.47349421 117.27883148 279.43990135 C117.27009162 281.33319069 117.2781062 283.22663827 117.30362701 285.11977577 C117.48061024 299.82169193 117.48061024 299.82169193 113.91056824 305.07402039 C111.39449815 307.40037416 108.92162306 309.21952279 106 311 C105.40009247 311.42613083 104.80018494 311.85226166 104.18209839 312.29130554 C102.73981476 313.30367909 101.22391853 314.20873286 99.70703125 315.10546875 C98.59400635 315.77167236 97.48098145 316.43787598 96.33422852 317.12426758 C95.16042399 317.81219088 93.98651196 318.49993076 92.8125 319.1875 C91.57346176 319.92423931 90.33511 320.66213422 89.09741211 321.40112305 C86.59551921 322.89388893 84.09077048 324.38167892 81.58398438 325.86621094 C77.32678128 328.39326711 73.10871607 330.98286932 68.89086914 333.57495117 C59.76355925 339.18212117 50.54661396 344.59855676 41.22460938 349.87524414 C35.41718168 353.16778864 29.72204794 356.58994407 24.05859375 360.125 C18.45502834 363.56013589 12.72118639 366.76569511 7 370 C6.41959961 370.38220703 5.83919922 370.76441406 5.24121094 371.15820312 C2.3467319 373.00952653 0.43124652 374.00388011 -3.0390625 373.97265625 C-6.48355365 372.84115454 -9.27412084 371.31938747 -12.375 369.4375 C-17.43685653 366.43848389 -22.54323933 363.61871406 -27.8125 361 C-28.4717749 360.67201416 -29.1310498 360.34402832 -29.81030273 360.00610352 C-33.34381629 358.2646865 -36.89769501 356.57587363 -40.4765625 354.9296875 C-48.04843765 351.4451099 -55.29818864 348.04067863 -62 343 C-61.61790396 340.5595578 -61.28127807 339.27889124 -59.50390625 337.51660156 C-58.86324219 337.0625293 -58.22257812 336.60845703 -57.5625 336.140625 C-56.83804688 335.62693359 -56.11359375 335.11324219 -55.3671875 334.58398438 C-51.3072826 331.86733184 -47.17250507 329.28951746 -43 326.75 C-41.13919525 325.60697864 -39.27851948 324.4637473 -37.41796875 323.3203125 C-36.04584229 322.47968262 -36.04584229 322.47968262 -34.64599609 321.62207031 C-30.86074224 319.30160283 -27.08242676 316.97028502 -23.3125 314.625 C-22.33470581 314.01688477 -22.33470581 314.01688477 -21.3371582 313.39648438 C-17.70433601 311.11993456 -14.17172306 308.75121342 -10.6875 306.25 C-7.56739621 304.01837264 -4.42737739 302.07375405 -1.04296875 300.26953125 C5.48263477 296.74999427 11.93665711 293.11391917 18.375 289.4375 C19.52355469 288.79103516 20.67210937 288.14457031 21.85546875 287.47851562 C22.96277344 286.84494141 24.07007813 286.21136719 25.2109375 285.55859375 C26.20399902 284.99454834 27.19706055 284.43050293 28.22021484 283.84936523 C32.25523082 281.1649066 35.4443111 278.66706671 37 274 C37.23118409 270.42072639 37.18517145 266.83596303 37.1875 263.25 C37.19974609 262.27289063 37.21199219 261.29578125 37.22460938 260.2890625 C37.23807003 253.6305236 37.17591076 247.86728202 32.99609375 242.359375 C28.97582326 239.19347751 24.7386565 237.27946827 20.0625 235.25 C19.09828125 234.82098389 18.1340625 234.39196777 17.140625 233.94995117 C9.38929184 230.52983879 1.54801433 227.34073178 -6.31274414 224.18237305 C-12.44104535 221.70021075 -18.25682876 218.92193507 -24.125 215.875 C-29.24683165 213.31408417 -34.57760773 211.22801841 -39.875 209.0625 C-47.44595861 205.96205661 -54.84822117 202.72886674 -62.11572266 198.97338867 C-67.41183509 196.24847775 -72.8081679 193.7942092 -78.25 191.375 C-99.91323268 181.69168019 -112.146789 173.65821798 -121 151 C-122.17949645 147.46151066 -122.2651332 144.16351088 -122.38330078 140.47436523 C-122.42448029 139.32737404 -122.42448029 139.32737404 -122.4664917 138.1572113 C-122.70635203 131.09975174 -122.84984512 124.04013831 -122.96293831 116.9796133 C-123.04037394 112.23996121 -123.15008205 107.50597528 -123.33740234 102.76928711 C-123.51797947 98.18107191 -123.61375696 93.59805146 -123.65185165 89.00651741 C-123.68058725 87.26401892 -123.7388212 85.52173203 -123.82797623 83.78127861 C-124.36955311 72.71462224 -124.36955311 72.71462224 -122 68 C-117.80376788 63.71853591 -112.40065431 61.27086761 -106.97442055 58.89573193 C-104.48350462 57.76568244 -102.2313988 56.36944699 -99.95703125 54.85546875 C-98.92352539 54.19212524 -98.92352539 54.19212524 -97.86914062 53.51538086 C-96.85110352 52.85807983 -96.85110352 52.85807983 -95.8125 52.1875 C-81.36957303 42.97396058 -66.52229084 34.43214657 -51.68261719 25.87817383 C-47.00617803 23.17814554 -42.36634858 20.42627553 -37.75 17.625 C-6.0233306 -1.60166458 -6.0233306 -1.60166458 0 0 Z " fill="#171718" transform="translate(275,74)"/>
<path d="M0 0 C0.84626953 -0.00773437 1.69253906 -0.01546875 2.56445312 -0.0234375 C8.52692639 -0.00504899 14.74471814 0.25451134 19.9375 3.5 C21.48685286 6.21136751 21.22934216 8.15647309 20.9375 11.25 C19.69114383 13.68501067 18.47364488 15.76882883 16.9375 18 C16.53031738 18.61053223 16.12313477 19.22106445 15.70361328 19.85009766 C10.4933747 27.55526616 4.5911857 34.64275477 -1.6171875 41.55859375 C-4.15117701 44.52404634 -5.37052589 47.03040991 -6.3125 50.75 C-10.49653562 64.79203174 -18.46521681 73.0383443 -31.0625 80.25 C-31.67279983 62.41568277 -31.67279983 62.41568277 -27.59375 57.46875 C-27.0471875 56.9634375 -26.500625 56.458125 -25.9375 55.9375 C-22.78100319 53.60009659 -22.78100319 53.60009659 -22.8828125 50.58203125 C-22.94210937 49.81246094 -23.00140625 49.04289062 -23.0625 48.25 C-37.10722411 49.94548922 -48.96898906 55.43432422 -61.375 62 C-62.56739553 62.62561158 -63.75994298 63.2509337 -64.95263672 63.87597656 C-73.75225971 68.50095753 -82.4716371 73.24809801 -91.0625 78.25 C-91.71766602 78.63043457 -92.37283203 79.01086914 -93.04785156 79.40283203 C-101.4295662 84.27921237 -109.75093241 89.2552589 -118.0625 94.25 C-130.61270105 101.7899611 -143.17085165 109.26127069 -156.02709961 116.26977539 C-160.31088614 118.63329173 -164.48799781 121.11529886 -168.62109375 123.734375 C-169.55791992 124.32758545 -170.49474609 124.9207959 -171.45996094 125.53198242 C-173.27899639 126.6928352 -175.09124999 127.86440534 -176.89550781 129.0480957 C-181.71755286 132.12978013 -185.3057453 133.99293247 -191.0625 134.25 C-191.85647239 133.00146327 -192.64757217 131.75109957 -193.4375 130.5 C-193.87835938 129.80390625 -194.31921875 129.1078125 -194.7734375 128.390625 C-197.05668533 124.59904981 -198.0625 122.81880402 -198.0625 118.25 C-173.70161059 104.23666063 -173.70161059 104.23666063 -164.375 100.375 C-152.82807813 95.57937986 -142.44983399 88.9434721 -131.94311523 82.23779297 C-127.191188 79.2079998 -122.41161649 76.2326136 -117.59375 73.30859375 C-106.34004728 66.47662788 -95.25994445 59.64952392 -84.82958984 51.60498047 C-82.88592144 50.11460196 -80.92363087 48.65138128 -78.95703125 47.19140625 C-75.56810645 44.67462545 -72.1931693 42.14039257 -68.82958984 39.58984375 C-67.26027631 38.39995806 -65.68705599 37.21522888 -64.11328125 36.03125 C-59.03862015 32.1145131 -54.7737786 27.95425291 -50.65625 23.03515625 C-49.0625 21.25 -49.0625 21.25 -47.0625 20.25 C-47.71476563 20.394375 -48.36703125 20.53875 -49.0390625 20.6875 C-58.8367622 22.76842737 -64.74514224 21.96367996 -74.0625 18.25 C-74.0625 17.59 -74.0625 16.93 -74.0625 16.25 C-73.17949219 15.82589844 -72.29648437 15.40179688 -71.38671875 14.96484375 C-70.17367864 14.37403665 -68.96150141 13.78145595 -67.75 13.1875 C-66.79637573 12.72029541 -66.79637573 12.72029541 -65.82348633 12.24365234 C-61.75423566 10.20928194 -58.00857539 7.9536817 -54.25 5.375 C-49.7309418 2.41792056 -45.56767152 0.4212645 -40.0625 1.25 C-38 2.9375 -38 2.9375 -37.0625 5.25 C-37.0625 6.57 -37.0625 7.89 -37.0625 9.25 C-35.86753906 8.76789063 -34.67257812 8.28578125 -33.44140625 7.7890625 C-31.83607865 7.15068661 -30.23060184 6.51268584 -28.625 5.875 C-27.84189453 5.55789062 -27.05878906 5.24078125 -26.25195312 4.9140625 C-17.43900081 1.43240233 -9.47473601 -0.08699069 0 0 Z " fill="#1C1D1D" transform="translate(443.0625,66.75)"/>
<path d="M0 0 C-1.30123846 3.90371537 -3.11715718 4.8170602 -6.4375 7.1875 C-7.92056641 8.26064453 -7.92056641 8.26064453 -9.43359375 9.35546875 C-12 11 -12 11 -14 11 C-13.99419922 12.01368652 -13.98839844 13.02737305 -13.98242188 14.07177734 C-13.93198685 27.26189534 -14.19936525 40.43882603 -14.5 53.625 C-14.665 61.00875 -14.83 68.3925 -15 76 C-41.4 76 -67.8 76 -95 76 C-95.33 70.39 -95.66 64.78 -96 59 C-98.64 59.33 -101.28 59.66 -104 60 C-100.8419464 56.60199625 -97.34830276 53.98901959 -93.5 51.4375 C-92.85345459 51.00695312 -92.20690918 50.57640625 -91.54077148 50.1328125 C-85.37640549 46.10781427 -78.96059919 42.60340782 -72.48535156 39.109375 C-65.11671726 35.11721144 -58.03112794 30.77200595 -50.97509766 26.25585938 C-48.8922536 24.9314898 -46.79773878 23.62750069 -44.69921875 22.328125 C-43.98604492 21.88605713 -43.27287109 21.44398926 -42.53808594 20.98852539 C-41.18925983 20.15311229 -39.83971139 19.31886369 -38.48925781 18.48608398 C-35.46556313 16.60556085 -32.54621855 14.67851146 -29.69921875 12.5390625 C-25.23656249 9.31202575 -20.34002988 7.03441538 -15.375 4.6875 C-14.446875 4.23310547 -13.51875 3.77871094 -12.5625 3.31054688 C-11.21285156 2.66762695 -11.21285156 2.66762695 -9.8359375 2.01171875 C-9.02688965 1.62459717 -8.2178418 1.23747559 -7.38427734 0.83862305 C-4.77801208 -0.07807992 -2.74233615 -0.1568877 0 0 Z " fill="#19191A" transform="translate(406,131)"/>
<path d="M0 0 C2.26041566 0.00503397 4.52083242 0.00959347 6.78125 0.01367188 C12.22919154 0.02450668 17.67709027 0.041089 23.125 0.0625 C23.336358 14.073861 23.336358 14.073861 20.72558594 18.35986328 C18.74689984 20.0725742 16.78108662 21.34282375 14.5 22.625 C13.70094238 23.13562988 12.90188477 23.64625977 12.07861328 24.17236328 C10.35274861 25.27034006 8.61229266 26.34565307 6.859375 27.39990234 C4.07589062 29.09236026 1.3647874 30.86608199 -1.34375 32.67578125 C-11.02190507 39.12985242 -20.86121304 45.31286328 -30.75 51.4375 C-42.31993275 58.61123517 -53.56754355 66.21576867 -64.77929688 73.93408203 C-69.92524031 77.47212106 -75.08867809 80.98445326 -80.25 84.5 C-82.80398998 86.24258688 -85.35789801 87.9852935 -87.91162109 89.72827148 C-92.82374879 93.06634384 -92.82374879 93.06634384 -95.375 92.875 C-99.36568323 91.57802795 -99.36568323 91.57802795 -100.875 89.0625 C-101.00298729 85.67083688 -100.81806067 83.26027803 -98.66015625 80.51953125 C-94.36964618 76.60666999 -89.30238515 73.90241931 -84.2734375 71.05859375 C-79.14732846 68.0477412 -74.24579885 64.71990014 -69.3203125 61.39453125 C-68.74442383 61.00604004 -68.16853516 60.61754883 -67.57519531 60.21728516 C-66.43448264 59.44250472 -65.29843404 58.66081583 -64.16699219 57.87255859 C-60.08839286 55.0625 -60.08839286 55.0625 -57.875 55.0625 C-56.90258055 52.14524166 -56.72332181 50.17446561 -56.66967773 47.13208008 C-56.64973251 46.13126907 -56.62978729 45.13045807 -56.60923767 44.09931946 C-56.58416893 42.4820118 -56.58416893 42.4820118 -56.55859375 40.83203125 C-56.53781265 39.72647385 -56.51703156 38.62091644 -56.49562073 37.4818573 C-56.43017668 33.9463021 -56.37126397 30.41067194 -56.3125 26.875 C-56.2693099 24.47980992 -56.22569546 22.08462745 -56.18164062 19.68945312 C-56.07450052 13.81388158 -55.97272443 7.93823528 -55.875 2.0625 C-49.91229107 1.24259524 -44.00394454 0.76956979 -37.9921875 0.50390625 C-37.04487762 0.46165421 -36.09756775 0.41940216 -35.12155151 0.37586975 C-23.41633907 -0.09786817 -11.71246058 -0.04620128 0 0 Z " fill="#161717" transform="translate(208.875,316.9375)"/>
<path d="M0 0 C3.91044024 1.30348008 4.20030052 2.71669281 6.0625 6.3125 C6.56910156 7.27800781 7.07570313 8.24351562 7.59765625 9.23828125 C8.74010912 11.48818147 9.87797806 13.73985055 11 16 C9.7625 16.54914063 9.7625 16.54914063 8.5 17.109375 C-0.94247535 21.53553532 -8.82079419 27.10039352 -17.02734375 33.4921875 C-20.12106965 35.8568968 -23.31099468 38.07907308 -26.5 40.3125 C-37.63983315 47.98080422 -37.63983315 47.98080422 -45 59 C-44.8447161 62.49388767 -44.47932212 63.52067788 -42 66 C-32.63195543 67.09019193 -23.30054557 65.80567764 -14.0625 64.25 C-12.62547729 64.01482666 -12.62547729 64.01482666 -11.15942383 63.77490234 C-5.81945209 62.80770767 -1.2641641 61.38428036 3.62524414 59.05273438 C8.33975115 56.96278329 13.31706495 55.60315404 18.25 54.125 C19.38155518 53.78275391 20.51311035 53.44050781 21.67895508 53.08789062 C23.99475384 52.3901789 26.31156756 51.69582687 28.62939453 51.00488281 C30.80092593 50.35748145 32.97127529 49.70609521 35.14013672 49.04980469 C37.98621487 48.18922152 40.83591119 47.34211785 43.6875 46.5 C44.52893555 46.24492676 45.37037109 45.98985352 46.23730469 45.72705078 C52.27038041 43.97753248 57.50222145 42.68041888 63.3125 45.75 C65.86380737 47.88597826 66.68936149 49.07106136 68 52 C61.87474564 55.11831131 55.80869455 56.87141668 49.13696289 58.3605957 C40.23632364 60.35901047 31.46369647 62.79480563 22.68164062 65.25634766 C20.08937521 65.97521514 17.49131293 66.66779659 14.890625 67.35546875 C13.3435471 67.77790344 11.79666053 68.20103974 10.25 68.625 C9.54101562 68.80667725 8.83203125 68.98835449 8.1015625 69.17553711 C4.42988188 70.20553916 4.42988188 70.20553916 1.609375 72.6484375 C0.71977237 76.08139125 0.35296428 79.47035721 0 83 C-13.48461621 84.26423531 -26.95290263 85.2239417 -40.5 85.375 C-41.60126221 85.40078125 -42.70252441 85.4265625 -43.8371582 85.453125 C-50.90035324 85.47040103 -56.76833841 84.46795584 -63 81 C-66.59890712 77.40109288 -67.79532006 74.60819952 -68.4375 69.5625 C-68.24062872 58.83301544 -60.11662226 50.17937907 -53 43 C-52.13568359 42.07960938 -52.13568359 42.07960938 -51.25390625 41.140625 C-46.264078 35.92344247 -40.61832842 31.5144563 -35 27 C-33.20750311 25.52183953 -31.41583181 24.04267732 -29.625 22.5625 C-24.0407768 17.99648274 -18.35867159 13.57116959 -12.60644531 9.21972656 C-11.00935775 8.00710507 -9.42259769 6.78092117 -7.8359375 5.5546875 C-6.85882813 4.81476563 -5.88171875 4.07484375 -4.875 3.3125 C-4.00617188 2.64863281 -3.13734375 1.98476562 -2.2421875 1.30078125 C-1.50226563 0.87152344 -0.76234375 0.44226563 0 0 Z " fill="#191A1A" transform="translate(142,241)"/>
<path d="M0 0 C4.61513112 1.31860889 8.09897612 3.21355437 12 6 C6.14453929 16.87442703 -6.70330375 23.72582772 -16.75 30.4375 C-18.00419908 31.2809775 -19.25810277 32.12489439 -20.51171875 32.96923828 C-22.94115571 34.60406174 -25.37267219 36.2357004 -27.80664062 37.86376953 C-30.35814878 39.57062705 -32.90678334 41.28154885 -35.453125 42.99609375 C-38.95628451 45.34981536 -42.47401593 47.68063338 -46 50 C-47.11882568 50.73694092 -47.11882568 50.73694092 -48.26025391 51.48876953 C-57.93074066 57.8476308 -67.66280289 64.06823756 -77.57055664 70.05102539 C-82.2198449 72.87155602 -86.75680597 75.81308087 -91.25 78.875 C-97.17196076 82.89661812 -103.25842064 86.5750481 -109.4375 90.1875 C-117.6150078 94.96916597 -125.71335627 99.85982941 -133.75 104.875 C-134.72509521 105.48110107 -135.70019043 106.08720215 -136.70483398 106.71166992 C-142.11657311 110.10208427 -147.39149799 113.63105389 -152.60253906 117.32177734 C-156.33891625 119.93724138 -160.16376739 122.40934242 -164 124.875 C-164.74894531 125.3596875 -165.49789062 125.844375 -166.26953125 126.34375 C-174.06324606 131.37104712 -174.06324606 131.37104712 -180 131 C-182.52793912 128.47206088 -182.35113422 126.62785835 -182.55859375 123.16796875 C-181.44872051 118.86041876 -177.83148081 116.54093496 -174.25 114.2109375 C-173.1775 113.60507812 -172.105 112.99921875 -171 112.375 C-163.05821314 107.77251402 -155.40969246 102.73868913 -147.75 97.6875 C-138.85354788 91.82624493 -129.93618062 86.01476278 -120.90600586 80.3605957 C-113.65971624 75.81292428 -106.50830816 71.12341698 -99.35205078 66.43579102 C-93.7732508 62.78825886 -88.16746755 59.19556301 -82.5 55.6875 C-75.4550525 51.32510348 -68.5574146 46.76324407 -61.68603516 42.13330078 C-59.27771505 40.51450236 -56.85672873 38.9149362 -54.4375 37.3125 C-50.52299097 34.70637307 -46.63161553 32.06896691 -42.75 29.4140625 C-41.31829468 28.43505981 -41.31829468 28.43505981 -39.85766602 27.4362793 C-37.9637678 26.13995418 -36.0709588 24.84203577 -34.17944336 23.54223633 C-25.08925659 17.31833203 -15.78436652 11.46045593 -6.41015625 5.67578125 C-3.97975585 3.98592425 -2.02254553 2.1539406 0 0 Z " fill="#151616" transform="translate(279,315)"/>
<path d="M0 0 C1.21582764 -0.01804688 2.43165527 -0.03609375 3.68432617 -0.0546875 C12.60461439 0.00426931 19.57924075 1.53671852 26.9375 6.6875 C29.62475398 10.71838097 29.74402896 13.79616366 28.8125 18.5 C26.43787279 24.98761787 21.95966953 29.87982877 17.2890625 34.84765625 C15.30907134 36.96818306 13.40278461 39.11749063 11.5078125 41.3125 C2.20914743 51.9793508 -7.99788083 61.84211031 -19.1875 70.5 C-20.39225325 71.46933394 -21.59527161 72.44082667 -22.796875 73.4140625 C-24.05172837 74.42231694 -25.30693314 75.4301342 -26.5625 76.4375 C-27.14596191 76.91098877 -27.72942383 77.38447754 -28.33056641 77.87231445 C-31.48034565 80.37024293 -34.35702877 82.24469576 -38.1875 83.5 C-38.73019531 82.75234375 -39.27289063 82.0046875 -39.83203125 81.234375 C-40.54746094 80.24953125 -41.26289063 79.2646875 -42 78.25 C-42.70769531 77.27546875 -43.41539062 76.3009375 -44.14453125 75.296875 C-45.80904821 73.01810991 -47.48751823 70.75234178 -49.1875 68.5 C-48.13175781 67.91605469 -48.13175781 67.91605469 -47.0546875 67.3203125 C-34.96152262 60.46857156 -23.89228441 52.35297041 -13.1875 43.5 C-12.08989062 42.61322323 -10.99223133 41.72650824 -9.89453125 40.83984375 C0.95386386 32.43193685 0.95386386 32.43193685 6.8125 20.5 C-13.47936534 14.75577036 -36.53556933 22.26240202 -54.73193359 31.16674805 C-60.88046419 34.17541152 -66.9700809 36.56302409 -73.5625 38.4375 C-74.28743652 38.64898682 -75.01237305 38.86047363 -75.75927734 39.07836914 C-81.01303166 40.4880446 -85.7523692 40.67688295 -91.1875 40.5 C-91.8475 39.18 -92.5075 37.86 -93.1875 36.5 C-82.53825222 29.81567683 -70.97558142 25.31170577 -58.75 22.5 C-57.8638501 22.29262207 -56.9777002 22.08524414 -56.06469727 21.87158203 C-49.68245613 20.5113836 -43.70879212 20.33157276 -37.1875 20.5 C-36.8575 15.22 -36.5275 9.94 -36.1875 4.5 C-24.11408331 1.54432203 -12.44666139 0.07622836 0 0 Z " fill="#171819" transform="translate(438.1875,194.5)"/>
<path d="M0 0 C0.66 0 1.32 0 2 0 C2.63479872 3.50549961 2.80691099 6.51189742 2 10 C-2.13257711 14.60666064 -7.91876812 16.98605395 -13.4375 19.5625 C-20.14910885 22.78027648 -25.84964682 27.14369868 -31.78100586 31.60791016 C-40.6746273 38.30043761 -49.86226251 44.43298957 -59.3125 50.3125 C-64.26885363 53.43044353 -68.96651081 56.8545803 -73.6875 60.3125 C-80.04957528 64.9692973 -86.5147552 69.29786384 -93.24316406 73.40380859 C-97.60760555 76.08302441 -101.79926044 78.92168544 -105.9375 81.9375 C-111.75758922 86.17842396 -117.72361364 90.14054596 -123.79760742 94.00854492 C-127.1023957 96.1144818 -130.37595377 98.23694991 -133.5703125 100.5078125 C-134.61960938 101.24773437 -135.66890625 101.98765625 -136.75 102.75 C-138.10351562 103.73226562 -138.10351562 103.73226562 -139.484375 104.734375 C-142 106 -142 106 -144.703125 105.890625 C-147 105 -147 105 -149 102 C-149.48828125 99.0703125 -149.48828125 99.0703125 -149 96 C-146.60546875 93.8671875 -146.60546875 93.8671875 -143.1875 91.875 C-141.89288437 91.09823062 -140.59863261 90.32085457 -139.3046875 89.54296875 C-138.60698242 89.13353027 -137.90927734 88.7240918 -137.19042969 88.30224609 C-133.34445712 86.01575282 -129.58650796 83.5902009 -125.8125 81.1875 C-124.18675113 80.160582 -122.56044224 79.13455009 -120.93359375 78.109375 C-120.11874512 77.59568359 -119.30389648 77.08199219 -118.46435547 76.55273438 C-116.03001281 75.01891039 -113.59509741 73.48599863 -111.16015625 71.953125 C-109.56497054 70.94812874 -107.96991806 69.94292096 -106.375 68.9375 C-105.5814209 68.43726318 -104.7878418 67.93702637 -103.97021484 67.42163086 C-98.93177939 64.23888994 -93.92790266 61.00735427 -88.9375 57.75 C-82.22898152 53.37459826 -75.42373646 49.16769781 -68.59185791 44.98791504 C-53.84526343 35.9655932 -39.60797361 26.57295165 -25.69921875 16.30078125 C-18.29600363 10.96300093 -10.42340365 6.45823864 -2.51538086 1.92041016 C-1.00749596 1.08659118 -1.00749596 1.08659118 0 0 Z " fill="#141515" transform="translate(297,336)"/>
<path d="M0 0 C0 1.32 0 2.64 0 4 C-1.0621875 4.38671875 -2.124375 4.7734375 -3.21875 5.171875 C-4.64592228 5.69767531 -6.07300059 6.22373071 -7.5 6.75 C-8.19609375 7.00265625 -8.8921875 7.2553125 -9.609375 7.515625 C-13.18417888 8.83962644 -16.59423035 10.26145881 -19.97265625 12.03125 C-24.15864672 14.17722594 -28.4099152 15.51414424 -32.9375 16.75 C-33.68451172 16.97042969 -34.43152344 17.19085938 -35.20117188 17.41796875 C-40.60703862 18.91985753 -45.39305343 19.20044695 -51 19 C-51.66 17.68 -52.32 16.36 -53 15 C-37.28392622 5.08868432 -18.71269141 -1.32089586 0 0 Z " fill="#0F1110" transform="translate(398,216)"/>
<path d="M0 0 C1.47500549 4.54798561 -0.14556832 7.52148885 -2.1875 11.625 C-2.54046143 12.33487061 -2.89342285 13.04474121 -3.25708008 13.77612305 C-8.02109474 22.68777571 -15.34253046 27.98278274 -24 33 C-24.61077975 15.15165842 -24.61077975 15.15165842 -20.0390625 9.6328125 C-16.16358315 6.01484009 -13.34390208 3.69116715 -8 3 C-7.26136719 2.89558594 -6.52273438 2.79117188 -5.76171875 2.68359375 C-3.84114583 2.45572917 -1.92057292 2.22786458 0 2 C0 1.34 0 0.68 0 0 Z " fill="#1B1B1C" transform="translate(436,114)"/>
<path d="M0 0 C2.6875 2.125 2.6875 2.125 3.6875 4.125 C4.19616466 10.22897596 3.74453618 13.23269166 -0.3125 18.125 C-4.0614923 19.99949615 -8.23970547 19.78355233 -12.3125 19.125 C-15.15314179 17.42563151 -15.66104524 16.20771556 -17.3125 13.125 C-18.09300085 9.19953985 -17.66282034 5.97314399 -16.125 2.25 C-11.73287961 -2.89938252 -5.68432141 -3.21754042 0 0 Z " fill="#F2F2F5" transform="translate(427.3125,84.875)"/>
<path d="M0 0 C-1.80134881 5.40404643 -7.12222163 8.38572258 -12 11 C-15.06292199 11.09947952 -16.23951095 10.47226083 -19 9 C-18 6 -18 6 -15.234375 4.39453125 C-14.08453125 3.87246094 -12.9346875 3.35039062 -11.75 2.8125 C-10.61046875 2.28269531 -9.4709375 1.75289062 -8.296875 1.20703125 C-5.22125107 0.08100306 -3.22499098 -0.27279059 0 0 Z " fill="#212324" transform="translate(406,131)"/>
<path d="M0 0 C-2.65927684 2.65927684 -5.59408266 3.1810914 -9.125 4.125 C-10.11306641 4.39763672 -10.11306641 4.39763672 -11.12109375 4.67578125 C-12.74576456 5.12315437 -14.37267893 5.56236535 -16 6 C-15.41550792 2.79193551 -15.28244874 2.20477534 -12.5 0.1875 C-8.01316534 -1.3348189 -4.58759574 -0.84615655 0 0 Z " fill="#101212" transform="translate(160,306)"/>
<path d="M0 0 C-1.23789629 3.71368887 -2.85224877 4.77354181 -6 7 C-6.66 7 -7.32 7 -8 7 C-8.33 6.34 -8.66 5.68 -9 5 C-9.99 4.34 -10.98 3.68 -12 3 C-4.71428571 -0.42857143 -4.71428571 -0.42857143 0 0 Z " fill="#292D2E" transform="translate(406,131)"/>
<path d="M0 0 C0.639375 0.2475 1.27875 0.495 1.9375 0.75 C2.2675 1.74 2.5975 2.73 2.9375 3.75 C1.1875 5.3125 1.1875 5.3125 -1.0625 6.75 C-3.3125 6.4375 -3.3125 6.4375 -5.0625 5.75 C-4.6875 3.3125 -4.6875 3.3125 -4.0625 0.75 C-2.0625 -0.25 -2.0625 -0.25 0 0 Z " fill="#1F1F1F" transform="translate(269.0625,359.25)"/>
<path d="M0 0 C0 0.99 0 1.98 0 3 C-2.1875 4.4375 -2.1875 4.4375 -5 6 C-6.68477344 7.31037934 -8.35648543 8.63823078 -10 10 C-10.99 9.34 -11.98 8.68 -13 8 C-8.71 5.36 -4.42 2.72 0 0 Z " fill="#242424" transform="translate(349,161)"/>
<path d="M0 0 C0.66 0 1.32 0 2 0 C2 3.3 2 6.6 2 10 C1.01 10 0.02 10 -1 10 C-1 1 -1 1 0 0 Z " fill="#2A2A2A" transform="translate(297,336)"/>
<path d="M0 0 C0.66 0 1.32 0 2 0 C2 3.63 2 7.26 2 11 C-1.3 10.67 -4.6 10.34 -8 10 C-7.67 9.01 -7.34 8.02 -7 7 C-6.67 7.66 -6.34 8.32 -6 9 C-4.02 8.34 -2.04 7.68 0 7 C0 4.69 0 2.38 0 0 Z " fill="#0A0C0D" transform="translate(140,313)"/>
<path d="M0 0 C0.99 0.33 1.98 0.66 3 1 C3 1.99 3 2.98 3 4 C1.68 4.33 0.36 4.66 -1 5 C-1 5.99 -1 6.98 -1 8 C-2.32 7.67 -3.64 7.34 -5 7 C-1.125 1.125 -1.125 1.125 0 0 Z " fill="#F2F1F6" transform="translate(449,236)"/>
<path d="M0 0 C0.66 0.33 1.32 0.66 2 1 C1.01 1.33 0.02 1.66 -1 2 C-0.01 3.32 0.98 4.64 2 6 C1.67 6.66 1.34 7.32 1 8 C-3.875 5.25 -3.875 5.25 -5 3 C-2.625 1.4375 -2.625 1.4375 0 0 Z " fill="#1F2221" transform="translate(394,260)"/>
<path d="M0 0 C1.65 0 3.3 0 5 0 C4.34 0.66 3.68 1.32 3 2 C2.59952556 4.32275177 2.2602896 6.65739357 2 9 C1.34 9 0.68 9 0 9 C0 6.03 0 3.06 0 0 Z " fill="#0D0F10" transform="translate(153,319)"/>
<path d="M0 0 C1.32 0 2.64 0 4 0 C3.67 1.32 3.34 2.64 3 4 C2.67 3.34 2.34 2.68 2 2 C0.68 3.32 -0.64 4.64 -2 6 C-3.32 5.34 -4.64 4.68 -6 4 C-4.7934375 3.566875 -4.7934375 3.566875 -3.5625 3.125 C-0.8673532 2.26737432 -0.8673532 2.26737432 0 0 Z " fill="#8D8F90" transform="translate(410,126)"/>
<path d="M0 0 C-0.33 0.99 -0.66 1.98 -1 3 C-3.31 3.33 -5.62 3.66 -8 4 C-7 1 -7 1 -5.125 -0.25 C-3 -1 -3 -1 0 0 Z " fill="#DDDEDD" transform="translate(293,352)"/>
<path d="M0 0 C0.66 1.32 1.32 2.64 2 4 C0.35 3.67 -1.3 3.34 -3 3 C-3.66 4.32 -4.32 5.64 -5 7 C-5.99 6.34 -6.98 5.68 -8 5 C-4.04 2.525 -4.04 2.525 0 0 Z " fill="#383A39" transform="translate(269,323)"/>
<path d="M0 0 C0.99 0.33 1.98 0.66 3 1 C2.34 2.32 1.68 3.64 1 5 C-1.97 4.505 -1.97 4.505 -5 4 C-2.6875 1.9375 -2.6875 1.9375 0 0 Z " fill="#D9D9D8" transform="translate(371,390)"/>
<path d="M0 0 C0.350625 0.474375 0.70125 0.94875 1.0625 1.4375 C3.84163543 3.67873825 6.5144717 3.67117658 10 4 C10 4.33 10 4.66 10 5 C7.03 5 4.06 5 1 5 C0.34 3.68 -0.32 2.36 -1 1 C-0.67 0.67 -0.34 0.34 0 0 Z " fill="#484848" transform="translate(346,230)"/>
<path d="M0 0 C1.32 0.33 2.64 0.66 4 1 C2.68 2.32 1.36 3.64 0 5 C-0.66 4.67 -1.32 4.34 -2 4 C-1.34 2.68 -0.68 1.36 0 0 Z " fill="#1F1F1F" transform="translate(258,368)"/>
<path d="M0 0 C0.66 0.33 1.32 0.66 2 1 C2 1.99 2 2.98 2 4 C1.01 4 0.02 4 -1 4 C-1.33 5.65 -1.66 7.3 -2 9 C-2.6875 7.3125 -2.6875 7.3125 -3 5 C-1.5625 2.25 -1.5625 2.25 0 0 Z " fill="#D2D3D6" transform="translate(145,311)"/>
<path d="M0 0 C0 0.99 0 1.98 0 3 C-0.99 3 -1.98 3 -3 3 C-3.33 3.99 -3.66 4.98 -4 6 C-6.0625 6.6875 -6.0625 6.6875 -8 7 C-6.5361389 2.60841671 -4.02168662 2.12052567 0 0 Z " fill="#2A2C2C" transform="translate(191,119)"/>
<path d="M0 0 C0.33 0 0.66 0 1 0 C0.67 2.64 0.34 5.28 0 8 C-0.66 8 -1.32 8 -2 8 C-1.125 1.125 -1.125 1.125 0 0 Z " fill="#1F2120" transform="translate(110,398)"/>
<path d="M0 0 C0.66 0.66 1.32 1.32 2 2 C0.68 3.32 -0.64 4.64 -2 6 C-2.99 5.67 -3.98 5.34 -5 5 C-4.01 3.68 -3.02 2.36 -2 1 C-1.67 1.33 -1.34 1.66 -1 2 C-0.67 1.34 -0.34 0.68 0 0 Z " fill="#F0F2F2" transform="translate(276,315)"/>
<path d="M0 0 C0.66 0.33 1.32 0.66 2 1 C1.1875 2.9375 1.1875 2.9375 0 5 C-0.99 5.33 -1.98 5.66 -3 6 C-3.66 5.34 -4.32 4.68 -5 4 C-4.01 3.34 -3.02 2.68 -2 2 C-1.34 1.34 -0.68 0.68 0 0 Z " fill="#F1F2F2" transform="translate(102,268)"/>
<path d="M0 0 C2.31 0 4.62 0 7 0 C7.33 1.32 7.66 2.64 8 4 C2.25 2.25 2.25 2.25 0 0 Z " fill="#DCDEE0" transform="translate(286,228)"/>
<path d="M0 0 C1.32 0.33 2.64 0.66 4 1 C2.71034824 2.37562854 1.37310707 3.70766393 0 5 C-0.66 5 -1.32 5 -2 5 C-1.34 3.35 -0.68 1.7 0 0 Z M-3 5 C-2.67 5.66 -2.34 6.32 -2 7 C-2.66 6.67 -3.32 6.34 -4 6 C-3.67 5.67 -3.34 5.34 -3 5 Z " fill="#D9D9DB" transform="translate(448,99)"/>
<path d="M0 0 C-2.97 2.475 -2.97 2.475 -6 5 C-6.33 3.35 -6.66 1.7 -7 0 C-3.86650268 -1.04449911 -3.01031744 -0.93423645 0 0 Z " fill="#CBCCCC" transform="translate(397,87)"/>
<path d="M0 0 C0.33 0 0.66 0 1 0 C1.3125 2.3125 1.3125 2.3125 1 5 C-1.5 6.8125 -1.5 6.8125 -4 8 C-2.87548273 5.0280615 -1.77706209 2.66559313 0 0 Z " fill="#D7D6D9" transform="translate(462,80)"/>
</svg>
